<?xml version="1.0" standalone="no"?>
<!DOCTYPE svg PUBLIC "-//W3C//DTD SVG 20010904//EN"
 "http://www.w3.org/TR/2001/REC-SVG-20010904/DTD/svg10.dtd">
<svg version="1.0" xmlns="http://www.w3.org/2000/svg"
 width="1024.000000pt" height="1024.000000pt" viewBox="0 0 1024.000000 1024.000000"
 preserveAspectRatio="xMidYMid meet">
<metadata>
Created by potrace 1.14, written by Peter Selinger 2001-2017
</metadata>
<g transform="translate(0.000000,1024.000000) scale(0.100000,-0.100000)"
fill="#000000" stroke="none">
<path d="M0 5120 l0 -5120 5120 0 5120 0 0 5120 0 5120 -5120 0 -5120 0 0
-5120z m5140 3898 c19 -6 176 -100 349 -208 174 -108 363 -225 420 -259 148
-89 247 -157 265 -183 9 -12 16 -39 16 -60 0 -31 -7 -45 -39 -76 -38 -36 -63
-52 -321 -202 -224 -130 -375 -223 -398 -244 -101 -90 -48 -228 88 -230 39 -1
59 8 150 65 58 36 263 155 455 265 l350 199 105 3 c58 2 110 8 117 14 9 7 7
20 -8 51 -24 54 -24 139 0 192 20 46 79 101 127 121 51 21 133 18 184 -8 53
-27 105 -92 121 -151 28 -106 -32 -229 -133 -272 -21 -8 -38 -17 -38 -19 0 -2
7 -23 15 -46 12 -34 15 -101 15 -342 0 -238 3 -304 14 -326 21 -39 69 -81 171
-149 86 -57 116 -73 161 -82 4 0 1 -8 -6 -16 -16 -20 -5 -45 20 -45 12 0 20
-7 20 -17 0 -15 -2 -16 -10 -3 -8 13 -11 12 -24 -5 -14 -19 -13 -20 12 -26 15
-4 21 -7 15 -8 -7 0 -13 -10 -13 -20 0 -26 -17 -36 -23 -14 -3 13 -5 14 -6 3
-2 -29 16 -43 43 -36 15 4 24 11 21 16 -3 6 1 7 10 4 13 -5 13 -9 -5 -24 -11
-9 -20 -22 -20 -29 0 -6 -7 -11 -15 -11 -21 0 -19 -8 9 -45 19 -24 22 -35 13
-44 -6 -6 -7 -11 -2 -11 4 0 0 -10 -11 -21 -19 -21 -19 -22 4 -15 13 5 22 3
22 -3 0 -6 11 -13 24 -17 15 -3 27 -15 29 -27 3 -18 5 -17 6 6 0 15 6 27 11
27 6 0 10 71 10 193 0 245 -3 251 -175 353 -124 74 -143 90 -151 128 -10 57
16 106 57 106 34 0 288 -142 336 -188 24 -23 56 -68 71 -100 l27 -57 3 -545
c1 -300 0 -555 -3 -568 -3 -13 -20 -30 -40 -39 -33 -16 -37 -16 -70 0 -20 9
-40 28 -45 43 -6 14 -11 166 -12 347 -1 177 -3 304 -5 282 -3 -22 -10 -43 -16
-47 -9 -6 -9 -10 1 -16 8 -5 10 -19 6 -40 -8 -40 -24 -42 -24 -3 0 17 -4 33
-10 36 -5 3 -10 -1 -10 -9 0 -9 -9 -16 -20 -16 -11 0 -20 -4 -20 -10 0 -5 9
-10 20 -10 11 0 20 -4 20 -10 0 -5 -4 -10 -10 -10 -5 0 -10 -22 -10 -50 0 -27
-4 -50 -10 -50 -5 0 -10 7 -10 15 0 32 -18 13 -33 -36 -15 -44 -17 -104 -17
-410 0 -321 5 -396 23 -346 3 9 9 9 26 -1 19 -11 21 -10 21 8 0 17 6 20 35 18
l35 -2 2 -56 c1 -40 3 -30 7 37 7 108 23 133 80 133 76 0 77 -2 84 -100 8
-102 20 -136 58 -156 48 -24 72 -18 111 30 43 50 103 76 180 76 167 0 277
-180 204 -336 -49 -106 -140 -148 -296 -138 -87 5 -99 4 -139 -18 -25 -13 -58
-40 -75 -61 -30 -38 -30 -38 -37 -207 -4 -107 -10 -175 -18 -184 -32 -38 -117
-20 -140 30 -6 14 -12 78 -13 142 -1 64 -3 96 -5 71 l-4 -47 -41 11 c-24 6
-43 6 -47 1 -8 -13 -30 -12 -39 2 -10 16 -68 44 -92 44 -24 0 -24 -3 -5 85 23
106 30 203 29 395 -1 149 -5 194 -27 301 -55 260 -141 468 -283 680 l-74 112
10 85 c6 47 11 167 11 266 0 234 -15 370 -59 546 -14 53 -16 99 -12 250 l5
185 -30 44 c-56 81 -150 104 -244 59 -76 -37 -570 -306 -661 -361 -80 -47
-236 -161 -361 -262 l-56 -46 -117 16 c-144 19 -365 19 -511 0 l-110 -13 -30
24 c-161 130 -295 225 -425 301 -305 176 -625 343 -698 362 -80 22 -153 -13
-193 -92 -18 -35 -19 -52 -13 -215 5 -145 3 -190 -10 -252 -63 -286 -83 -652
-46 -853 l11 -57 -54 -73 c-229 -307 -361 -739 -343 -1123 4 -72 13 -168 22
-215 8 -46 18 -99 21 -116 5 -30 3 -33 -19 -33 -36 0 -91 -41 -103 -75 -5 -17
-14 -34 -20 -38 -7 -6 -6 -10 3 -14 6 -2 12 -12 12 -21 0 -15 -2 -15 -10 -2
-6 9 -10 11 -10 3 0 -7 -6 -10 -13 -7 -7 2 -13 -4 -14 -16 -1 -11 2 -20 8 -20
5 0 9 -4 9 -10 0 -18 -32 -10 -37 9 -3 11 -11 17 -18 15 -18 -7 -24 26 -27
136 -2 86 -3 82 -8 -45 -3 -77 -2 -141 3 -143 13 -6 8 -24 -6 -19 -7 3 -21 -1
-32 -9 -10 -8 -38 -14 -60 -14 -69 0 -73 10 -77 201 -3 163 -3 166 -30 202
-58 75 -77 82 -228 82 -120 0 -140 3 -176 22 -117 62 -165 202 -110 318 42 89
117 138 211 138 69 -1 128 -27 174 -79 32 -36 45 -44 74 -44 19 0 45 8 58 19
22 17 24 28 27 113 3 117 8 138 30 138 9 0 24 5 32 11 12 9 11 10 -6 6 -51
-11 -49 -34 -49 670 l0 658 31 65 c35 73 78 120 138 154 204 114 228 126 260
126 42 0 66 -28 66 -76 0 -46 -41 -89 -124 -131 -107 -53 -161 -97 -185 -148
-25 -54 -29 -107 -6 -99 12 5 13 10 4 20 -11 14 -5 34 12 34 5 0 9 -5 9 -11 0
-5 -5 -7 -12 -3 -7 4 -8 3 -4 -5 6 -9 11 -9 22 0 7 6 12 14 10 18 -2 3 3 12
10 19 13 12 14 10 8 -12 -4 -16 -2 -26 5 -26 6 0 8 6 5 14 -3 7 2 16 10 19 11
4 16 1 17 -11 0 -12 2 -13 6 -3 11 26 36 49 49 44 8 -3 11 -10 7 -16 -3 -6 -1
-7 6 -3 6 4 9 16 6 26 -3 10 0 22 6 26 8 5 10 2 6 -8 -4 -11 1 -18 14 -21 12
-3 19 0 19 9 0 8 8 14 18 14 14 0 15 2 2 10 -12 8 -9 9 11 8 47 -4 182 94 205
148 10 24 14 84 15 211 1 206 13 471 23 494 5 12 -6 22 -48 43 -143 70 -180
231 -82 359 63 82 187 100 282 41 101 -62 141 -189 91 -287 -17 -33 -21 -50
-13 -55 6 -4 59 -7 117 -7 l106 0 129 -66 c156 -81 733 -410 788 -450 66 -48
149 -35 195 30 26 36 28 111 5 151 -18 29 -107 87 -339 218 -421 238 -465 270
-465 336 0 18 9 45 20 59 17 21 554 363 820 522 36 22 87 55 113 73 48 34 107
61 138 62 9 0 31 -5 49 -12z m-2154 -26 c6 -4 17 -18 24 -31 10 -20 9 -27 -7
-50 -37 -49 -103 -28 -103 33 0 41 53 70 86 48z m726 -29 c49 -47 32 -127 -32
-153 -60 -25 -130 22 -130 87 0 27 9 44 35 70 30 30 40 35 67 29 18 -3 45 -18
60 -33z m3620 25 c30 -24 31 -56 4 -83 -14 -14 -33 -25 -42 -25 -46 0 -72 71
-38 104 19 19 54 21 76 4z m-4705 -47 c66 -41 45 -108 -38 -124 -62 -12 -81
-32 -77 -81 3 -34 9 -44 38 -62 125 -79 130 -96 130 -420 0 -241 0 -243 -24
-270 -30 -35 -87 -37 -120 -5 -20 21 -21 32 -24 285 l-3 264 -27 10 c-104 39
-162 192 -113 297 47 101 177 155 258 106z m5122 -11 c23 -11 53 -39 68 -62
25 -37 28 -51 28 -122 0 -71 -3 -86 -27 -122 -15 -23 -50 -57 -77 -75 l-51
-32 0 -252 c0 -240 -1 -254 -21 -279 -40 -50 -128 -28 -144 37 -4 13 -5 133
-3 268 3 238 4 245 28 287 14 25 45 57 77 78 55 36 73 59 73 91 0 29 -36 61
-83 74 -56 15 -67 25 -67 65 0 71 102 94 199 44z m-5531 -542 c7 -7 12 -36 12
-65 l0 -53 48 0 c81 0 117 -45 72 -90 -14 -14 -33 -20 -65 -20 l-45 0 0 -50
c0 -54 -23 -90 -59 -90 -35 0 -51 27 -51 86 l0 54 -46 0 c-60 0 -84 14 -84 48
0 42 11 51 70 54 l55 3 3 55 c2 30 8 60 14 67 13 16 60 17 76 1z m5847 -153
c64 -31 74 -108 21 -161 -69 -69 -176 -26 -176 71 0 83 76 127 155 90z m-4231
-695 c193 -105 242 -150 470 -432 27 -33 34 -48 23 -48 -8 0 -17 4 -19 8 -8
21 -453 392 -469 392 -8 0 -35 -117 -49 -215 -6 -38 -13 -146 -17 -238 l-6
-168 -33 -28 c-18 -16 -30 -33 -26 -37 4 -4 1 -4 -5 0 -7 4 -17 5 -23 1 -15
-9 0 -35 20 -35 11 0 22 -5 25 -10 5 -8 12 -7 23 2 10 6 -12 -15 -48 -47 -35
-33 -78 -73 -95 -89 l-30 -28 -8 53 c-13 95 -9 387 7 496 17 113 52 257 91
378 15 44 28 86 30 93 7 20 24 14 139 -48z m2636 44 c0 -18 -24 -84 -31 -84
-4 0 -48 -27 -96 -59 -106 -71 -235 -182 -358 -308 -49 -51 -94 -93 -99 -93
-19 0 -176 64 -174 71 6 15 139 120 248 196 153 107 306 198 410 245 87 39
100 43 100 32z m-4145 -33 c47 -21 108 -86 130 -137 42 -101 1 -234 -89 -289
-45 -28 -57 -30 -141 -30 -83 0 -95 3 -133 28 -67 44 -96 97 -100 182 -4 78 8
121 53 180 59 76 190 107 280 66z m5721 3 c87 -36 145 -109 160 -202 8 -54
-19 -143 -58 -188 -51 -57 -101 -78 -189 -79 -67 0 -81 3 -124 30 -27 17 -63
50 -80 73 -25 37 -30 54 -33 115 -2 50 1 83 12 109 52 123 198 189 312 142z
m-5186 -414 c0 -5 -2 -10 -4 -10 -3 0 -8 5 -11 10 -3 6 -1 10 4 10 6 0 11 -4
11 -10z m-14 -46 c-11 -7 -22 -12 -25 -9 -2 3 4 12 15 19 10 8 21 12 24 9 3
-2 -4 -11 -14 -19z m4544 -114 c0 -5 -5 -10 -11 -10 -5 0 -7 5 -4 10 3 6 8 10
11 10 2 0 4 -4 4 -10z m-2075 -21 c166 -21 430 -104 530 -167 l40 -26 -33 -8
c-27 -7 -53 -3 -125 21 -174 57 -240 66 -487 66 -239 -1 -304 -9 -477 -61
-170 -51 -421 -173 -512 -249 -16 -14 -38 -25 -49 -25 -12 0 -28 -10 -36 -22
-19 -27 -22 -49 -3 -24 7 10 29 21 47 25 51 11 86 -10 102 -60 15 -52 -1 -86
-53 -112 -42 -20 -78 -12 -111 26 l-19 22 5 -65 c8 -114 -19 -160 -139 -238
-159 -104 -244 -184 -320 -303 -49 -75 -84 -101 -110 -79 -11 9 -15 34 -15
106 0 60 -4 95 -12 100 -21 14 -76 -72 -135 -210 -23 -56 -73 -235 -73 -264 0
-8 -6 -28 -14 -45 -8 -18 -16 -70 -19 -116 l-4 -84 81 7 c45 3 159 6 254 6
l172 0 -7 43 c-12 66 -9 207 6 262 20 73 74 173 126 232 58 66 174 144 256
172 273 93 573 -41 714 -319 46 -91 48 -98 48 -180 1 -155 -54 -282 -170 -395
-137 -135 -322 -207 -527 -207 -196 1 -318 70 -407 231 l-24 43 -180 -7 c-114
-4 -229 -15 -314 -29 -150 -26 -187 -22 -197 20 -14 56 8 83 79 99 25 5 28 9
22 32 -12 50 -6 337 10 427 49 281 194 525 448 757 212 193 405 323 657 443
319 151 625 199 975 155z m2082 -25 c-3 -3 -12 -4 -19 -1 -8 3 -5 6 6 6 11 1
17 -2 13 -5z m33 -86 c0 -4 -4 -8 -9 -8 -6 0 -12 4 -15 8 -3 5 1 9 9 9 8 0 15
-4 15 -9z m-45 -28 c-3 -5 -11 -10 -16 -10 -6 0 -7 5 -4 10 3 6 11 10 16 10 6
0 7 -4 4 -10z m15 -25 c-7 -8 -16 -12 -21 -9 -13 8 -1 24 18 24 13 0 13 -3 3
-15z m31 -50 c12 8 12 6 1 -8 -12 -14 -16 -14 -28 -2 -8 7 -14 19 -14 26 0 7
6 5 13 -6 9 -12 19 -15 28 -10z m-5593 -1 c45 -31 17 -104 -41 -104 -53 0 -76
61 -37 100 24 24 48 25 78 4z m5612 -29 c0 -8 -7 -15 -15 -15 -13 0 -14 3 -3
15 16 18 18 18 18 0z m-5265 -119 c13 -9 20 -30 23 -70 l4 -56 42 0 c50 0 86
-23 86 -54 0 -33 -20 -46 -79 -53 l-51 -6 0 -45 c0 -52 -21 -82 -56 -82 -37 0
-54 26 -54 81 l0 49 -43 0 c-74 0 -111 47 -70 92 11 13 30 18 65 18 l48 0 0
50 c0 73 40 109 85 76z m5847 -3 c13 -12 18 -30 18 -70 l0 -53 55 0 c47 0 57
-3 71 -26 16 -24 16 -27 -3 -52 -16 -22 -29 -28 -72 -30 l-51 -3 0 -53 c0 -56
-12 -76 -45 -76 -33 0 -53 30 -57 84 l-3 48 -49 2 c-107 4 -98 106 9 106 l45
0 0 52 c0 76 39 110 82 71z m-585 -152 c-3 -48 -27 -44 -27 5 0 23 5 34 15 34
11 0 14 -10 12 -39z m971 -376 c55 -64 8 -165 -78 -165 -78 0 -125 83 -89 153
32 60 119 66 167 12z m-6576 8 c22 -20 24 -66 2 -87 -33 -34 -104 -8 -104 38
0 56 62 86 102 49z m4175 -182 c236 -80 395 -297 397 -546 0 -49 -3 -106 -7
-126 l-7 -36 222 -6 c287 -6 433 -33 452 -82 11 -29 6 -51 -14 -70 -22 -20
-56 -18 -206 9 -44 8 -166 18 -270 22 l-189 7 -42 -65 c-110 -170 -236 -224
-478 -206 -141 10 -269 59 -391 152 -142 106 -220 248 -231 416 -6 84 -4 91
28 161 50 110 90 168 161 234 122 115 266 169 425 160 52 -2 117 -13 150 -24z
m-2477 -391 c16 -29 -13 -80 -45 -80 -41 0 -53 47 -22 88 15 19 55 14 67 -8z
m211 -560 c24 -13 25 -42 1 -63 -10 -9 -51 -23 -92 -32 -41 -8 -91 -20 -110
-26 -59 -19 -214 -82 -235 -96 -26 -18 -80 -17 -99 3 -23 23 -20 67 7 91 88
81 449 165 528 123z m2966 -16 c89 -21 228 -72 258 -96 31 -24 33 -70 5 -98
-27 -27 -36 -26 -132 20 -45 21 -146 56 -223 76 -77 20 -150 40 -162 45 -28
10 -31 53 -5 69 22 14 171 5 259 -16z m-2769 -156 c31 -31 3 -80 -53 -94 -81
-19 -295 -115 -382 -170 -62 -39 -110 -45 -138 -14 -22 24 -14 63 19 94 32 29
184 108 271 141 134 50 257 69 283 43z m2572 -33 c173 -61 230 -97 230 -145 0
-62 -55 -66 -172 -10 -45 22 -130 57 -188 78 -80 29 -107 43 -117 62 -10 20
-9 28 5 43 24 28 110 17 242 -28z m-3660 5 c0 -5 -2 -10 -4 -10 -3 0 -8 5 -11
10 -3 6 -1 10 4 10 6 0 11 -4 11 -10z m2445 -25 c295 -75 474 -336 394 -577
-49 -151 -173 -248 -318 -248 -25 0 -95 14 -155 31 -124 35 -169 35 -272 -2
-42 -16 -84 -22 -144 -23 -74 -1 -92 3 -136 26 -133 70 -215 244 -187 396 35
187 188 335 407 392 93 25 324 27 411 5z m-2458 -17 c-3 -8 -6 -5 -6 6 -1 11
2 17 5 13 3 -3 4 -12 1 -19z m54 1 c11 -5 18 -13 15 -17 -2 -4 16 -8 40 -8 24
-1 41 2 39 6 -10 16 19 16 52 1 35 -16 44 -31 18 -31 -8 0 -15 -5 -15 -11 0
-5 3 -8 8 -5 4 2 16 -2 27 -10 19 -14 18 -15 -25 -18 -22 -1 -25 3 -22 27 1
15 -2 27 -8 27 -5 0 -10 -7 -10 -15 0 -17 -16 -20 -25 -5 -4 6 -14 10 -23 9
-30 -4 -67 12 -85 37 -20 26 -16 30 14 13z m154 1 c-3 -5 -11 -10 -16 -10 -6
0 -7 5 -4 10 3 6 11 10 16 10 6 0 7 -4 4 -10z m-153 -322 c67 -31 142 -98 169
-150 11 -21 22 -59 25 -85 3 -27 7 -58 10 -69 5 -26 48 -53 166 -104 157 -69
198 -117 198 -238 0 -85 0 -85 175 -183 72 -40 149 -83 171 -96 l41 -23 39 39
c27 26 58 44 94 55 67 20 85 20 143 0 59 -20 132 -98 148 -157 25 -92 -16
-201 -94 -254 -116 -78 -265 -42 -325 79 -22 44 -35 54 -215 159 -338 197
-347 205 -347 309 0 87 -15 103 -158 171 -182 87 -214 123 -217 241 -2 57 -7
73 -30 104 -39 51 -77 64 -194 64 -74 0 -103 4 -114 15 -17 16 -33 127 -22
146 5 8 47 10 144 7 121 -3 142 -7 193 -30z m4718 -41 c0 -43 -5 -78 -12 -85
-8 -8 -48 -12 -112 -12 -174 -1 -225 -41 -236 -187 -6 -78 -9 -86 -41 -119
-21 -22 -85 -61 -167 -101 -79 -38 -137 -73 -144 -86 -7 -12 -15 -55 -18 -95
-5 -57 -12 -78 -31 -98 -26 -27 -35 -33 -326 -203 -146 -86 -194 -119 -203
-140 -14 -35 -74 -97 -114 -119 -20 -11 -56 -16 -103 -17 -63 0 -76 3 -114 30
-67 47 -102 104 -107 174 -16 227 221 343 384 187 l43 -42 178 99 c98 54 188
108 201 120 17 16 22 32 22 71 0 114 41 177 149 227 193 89 221 111 221 179 0
92 85 207 186 251 64 29 115 37 237 38 l107 1 0 -73z m-5295 18 c48 -19 94
-64 122 -118 21 -43 24 -61 21 -122 -3 -59 -9 -81 -33 -121 -101 -163 -357
-146 -430 28 -8 21 -15 66 -15 102 0 179 171 298 335 231z m5724 3 c44 -14
107 -71 134 -122 32 -62 30 -164 -5 -233 -46 -86 -110 -123 -215 -123 -74 0
-115 15 -167 60 -95 84 -109 209 -36 324 33 51 103 97 164 107 43 6 70 4 125
-13z m-2842 -622 c145 -39 266 -134 328 -259 42 -84 44 -107 11 -107 -64 0
-80 10 -105 66 -41 94 -140 162 -271 186 -61 12 -61 11 -83 -15 -16 -20 -39
-32 -85 -42 -131 -31 -236 -111 -267 -206 -24 -71 -16 -221 15 -301 26 -66 22
-84 -21 -102 l-31 -13 32 -37 c18 -20 30 -39 27 -42 -3 -3 -24 19 -46 49 -140
185 -146 459 -15 637 113 154 331 234 511 186z m2841 -102 l22 -6 0 -376 c0
-372 0 -376 -22 -399 -33 -35 -89 -32 -122 8 l-26 31 2 366 3 367 30 6 c41 9
85 10 113 3z m-2820 -235 c73 -36 147 -114 162 -170 29 -107 6 -209 -65 -287
-115 -128 -325 -128 -440 0 -98 107 -108 241 -28 351 45 61 91 96 156 118 80
28 143 24 215 -12z m-2290 -31 c7 -7 12 -38 12 -70 l0 -58 45 0 c35 0 52 -6
70 -25 22 -21 23 -28 14 -49 -13 -27 -35 -36 -91 -36 l-38 0 0 -60 c0 -55 -2
-62 -25 -72 -19 -8 -31 -8 -50 0 -23 10 -25 17 -25 72 l0 60 -46 0 c-61 0 -84
14 -84 50 0 38 32 60 87 60 l43 0 0 54 c0 36 5 60 16 70 18 19 55 21 72 4z
m4380 -4 c18 -12 22 -25 22 -70 l0 -54 38 0 c75 0 109 -38 78 -85 -14 -21 -24
-25 -66 -25 l-50 0 0 -54 c0 -61 -16 -86 -55 -86 -39 0 -55 25 -55 86 l0 54
-47 0 c-75 0 -107 46 -63 90 14 14 33 20 65 20 l45 0 0 50 c0 37 5 55 20 70
24 24 38 25 68 4z m1133 -43 c21 -22 29 -39 29 -66 0 -83 -105 -127 -164 -69
-58 59 -14 164 69 164 27 0 44 -8 66 -29z m-775 5 c17 -13 19 -30 22 -211 4
-230 -1 -248 -66 -243 -57 5 -62 24 -62 234 0 168 1 183 21 208 23 29 55 33
85 12z m-5305 -57 c47 -16 116 -85 135 -136 53 -139 -55 -296 -204 -297 -125
-1 -216 91 -216 219 0 154 142 261 285 214z m-510 -135 c60 -54 11 -164 -74
-164 -86 0 -131 105 -69 162 15 14 36 28 47 30 27 6 74 -8 96 -28z m-812 -800
c96 -27 181 -102 181 -160 0 -27 -52 -82 -85 -90 -14 -3 -36 1 -52 10 -87 48
-138 56 -199 30 -34 -14 -52 -30 -97 -84 -15 -18 -16 -168 -2 -178 6 -4 15
-16 21 -27 6 -11 29 -32 50 -47 55 -39 113 -37 200 4 l66 31 34 -18 c19 -10
44 -33 55 -51 l20 -33 -20 -40 c-40 -77 -147 -131 -261 -131 -157 0 -307 102
-361 242 -31 82 -34 231 -6 293 34 74 41 86 76 127 96 112 246 160 380 122z
m761 1 c157 -41 272 -159 301 -306 16 -82 6 -187 -24 -253 -25 -54 -99 -138
-150 -170 -190 -118 -459 -34 -556 174 -23 49 -26 68 -26 165 0 106 1 112 34
173 60 111 156 191 258 216 77 18 98 18 163 1z m681 3 c42 -14 59 -31 140
-138 35 -47 67 -89 72 -95 4 -5 21 -29 38 -52 28 -40 49 -54 49 -35 0 4 13 22
30 40 16 18 35 43 41 54 7 12 16 27 20 32 5 6 36 47 69 91 33 44 75 88 93 98
63 36 174 2 198 -60 5 -13 9 -171 9 -349 l0 -326 -29 -29 c-40 -40 -105 -41
-150 -3 l-31 26 0 184 c0 202 -5 216 -50 142 -14 -22 -29 -46 -35 -52 -5 -6
-23 -31 -40 -56 -16 -25 -34 -49 -38 -55 -4 -5 -21 -29 -38 -52 -41 -57 -67
-57 -105 0 -16 23 -32 47 -37 52 -4 6 -27 37 -52 70 -24 33 -57 75 -72 94
l-28 35 -5 -183 -5 -183 -28 -24 c-42 -36 -106 -33 -149 5 l-33 29 -3 334 c-3
332 -3 335 19 362 22 28 70 55 100 56 9 0 31 -5 50 -12z m1219 -3 c16 -8 74
-75 129 -148 112 -147 140 -181 145 -176 5 5 126 170 146 199 41 58 105 120
137 131 45 14 112 -3 145 -38 l23 -25 0 -343 0 -344 -25 -23 c-20 -18 -36 -23
-80 -23 -49 0 -60 4 -83 29 l-27 29 0 180 0 180 -25 -27 c-14 -16 -33 -40 -43
-54 -9 -15 -22 -34 -29 -42 -6 -8 -39 -52 -73 -97 -34 -46 -68 -83 -76 -83
-14 0 -74 57 -74 71 0 3 -8 15 -17 27 -10 11 -47 61 -83 111 -36 49 -68 90
-72 90 -5 1 -8 -83 -8 -187 0 -181 -1 -188 -22 -206 -34 -30 -107 -33 -140 -6
-16 12 -28 28 -28 36 0 8 -4 14 -10 14 -6 0 -10 115 -10 325 0 290 2 329 17
352 38 58 121 80 183 48z m1162 -21 l28 -28 0 -346 0 -347 -25 -23 c-16 -15
-41 -24 -74 -28 -45 -4 -52 -2 -80 27 l-31 32 0 342 c0 309 2 344 18 364 39
50 115 53 164 7z m808 17 c65 -16 98 -76 79 -145 -13 -48 -59 -66 -165 -66
l-85 0 2 -266 2 -266 -28 -24 c-21 -18 -40 -24 -73 -24 -38 0 -49 5 -78 36
l-34 35 0 257 0 257 -79 -3 c-63 -3 -85 0 -108 14 -62 39 -78 86 -48 144 29
57 45 59 330 58 143 0 271 -3 285 -7z m2832 -31 c288 -47 416 -372 229 -581
-162 -181 -461 -163 -588 34 -30 47 -63 148 -63 192 0 46 31 142 62 190 53 84
141 147 232 165 57 11 64 11 128 0z m1178 -19 c14 -10 35 -36 47 -58 22 -38
22 -42 7 -85 -20 -61 -52 -89 -107 -95 -93 -11 -163 56 -155 146 10 99 125
150 208 92z m-3654 13 c20 -5 22 -14 29 -152 l7 -146 32 35 c17 19 51 59 76
89 25 29 71 81 102 114 l57 60 70 4 c83 5 88 -3 42 -62 -25 -32 -59 -70 -208
-234 -13 -14 -23 -28 -23 -32 0 -4 10 -18 23 -32 21 -24 66 -74 206 -233 33
-38 61 -75 61 -82 0 -9 -20 -13 -70 -13 -55 0 -74 4 -87 19 -129 136 -203 220
-203 232 0 19 -31 15 -54 -8 -24 -24 -26 -32 -26 -123 0 -114 -6 -123 -77
-118 l-48 3 -3 337 c-2 314 -1 337 15 341 27 7 56 7 79 1z m675 -4 c18 -10 19
-23 19 -231 0 -209 1 -222 22 -258 41 -71 121 -96 193 -60 83 41 95 85 95 342
l0 197 24 11 c14 7 40 9 60 5 l36 -7 0 -241 c0 -151 -4 -255 -11 -279 -15 -49
-77 -113 -137 -141 -36 -17 -66 -22 -127 -22 -69 -1 -88 3 -140 29 -71 36
-116 90 -139 169 -23 78 -23 441 0 474 17 24 70 30 105 12z m2630 -22 c25 -14
56 -32 70 -39 13 -8 26 -15 27 -16 5 -2 -41 -67 -50 -71 -5 -2 -8 -10 -8 -18
0 -20 -14 -17 -55 10 -20 14 -61 30 -91 36 -50 11 -58 10 -97 -12 -46 -25 -61
-66 -34 -93 17 -16 113 -55 138 -55 25 0 168 -77 189 -102 67 -79 39 -200 -59
-263 -80 -50 -222 -56 -326 -12 -60 25 -115 64 -115 82 0 20 62 85 80 85 10 0
28 -8 41 -19 54 -41 118 -58 200 -53 38 3 89 53 82 80 -5 22 -75 62 -106 62
-10 0 -25 4 -35 9 -9 5 -46 20 -81 33 -65 24 -141 85 -141 113 0 8 -4 15 -10
15 -5 0 -10 19 -10 43 0 70 48 149 110 183 56 30 71 33 155 30 64 -2 89 -7
126 -28z m-1614 0 c32 -12 63 -26 68 -31 6 -4 25 -18 43 -31 74 -53 132 -164
132 -254 0 -98 -52 -211 -122 -264 -90 -68 -108 -73 -305 -76 l-183 -4 0 335
c0 183 3 337 7 340 3 4 73 7 154 7 128 0 155 -3 206 -22z m730 -1017 c49 -73
22 -179 -57 -225 l-35 -21 -3256 -3 -3255 -2 -54 27 c-70 36 -93 77 -86 150 3
31 13 65 26 83 l21 30 3337 -2 3336 -3 23 -34z"/>
<path d="M3243 8320 c-47 -19 -57 -87 -18 -125 13 -14 36 -25 50 -25 31 0 75
41 75 69 0 33 -21 68 -47 80 -28 13 -30 13 -60 1z"/>
<path d="M6870 8317 c-72 -36 -52 -147 27 -147 27 0 83 50 83 74 0 31 -24 65
-53 76 -16 5 -30 10 -31 10 -1 0 -12 -6 -26 -13z"/>
<path d="M7320 6860 c0 -5 4 -10 9 -10 6 0 13 5 16 10 3 6 -1 10 -9 10 -9 0
-16 -4 -16 -10z"/>
<path d="M7350 6660 c0 -5 7 -10 15 -10 8 0 15 5 15 10 0 6 -7 10 -15 10 -8 0
-15 -4 -15 -10z"/>
<path d="M7360 6620 c0 -5 12 -10 26 -10 14 0 23 4 19 10 -3 6 -15 10 -26 10
-10 0 -19 -4 -19 -10z"/>
<path d="M2163 5434 c-50 -50 -10 -134 64 -134 70 0 107 77 62 134 -29 36 -89
37 -126 0z"/>
<path d="M7901 5434 c-58 -73 11 -165 97 -128 53 22 62 104 14 140 -9 8 -34
14 -54 14 -28 0 -41 -6 -57 -26z"/>
<path d="M7450 4995 c0 -8 2 -15 4 -15 2 0 6 7 10 15 3 8 1 15 -4 15 -6 0 -10
-7 -10 -15z"/>
<path d="M2166 7384 c-38 -39 -36 -93 5 -128 17 -14 43 -26 58 -26 31 0 68 30
82 67 32 84 -80 151 -145 87z"/>
<path d="M7909 7381 c-39 -39 -40 -92 -3 -126 56 -52 144 -16 144 59 0 48 -8
65 -41 81 -42 22 -67 18 -100 -14z"/>
<path d="M4125 5703 c-83 -23 -119 -123 -70 -196 23 -36 79 -60 121 -53 46 9
91 50 105 96 10 32 9 44 -7 76 -30 60 -92 92 -149 77z"/>
<path d="M4542 5569 c-123 -61 -136 -236 -22 -318 61 -44 117 -50 183 -17 102
50 134 151 80 256 -48 94 -145 126 -241 79z"/>
<path d="M4050 5283 c-107 -56 -107 -198 0 -271 29 -20 44 -23 88 -20 32 3 64
13 80 25 86 64 86 192 0 256 -38 29 -123 34 -168 10z"/>
<path d="M5995 5701 c-30 -13 -64 -54 -75 -89 -17 -62 21 -131 86 -152 68 -23
154 42 154 115 0 37 -27 91 -54 109 -30 19 -86 28 -111 17z"/>
<path d="M5485 5566 c-123 -75 -120 -266 5 -331 91 -46 207 -7 256 86 35 69 5
184 -61 235 -54 41 -143 45 -200 10z"/>
<path d="M6002 5279 c-143 -72 -88 -289 73 -289 93 0 160 65 160 155 0 120
-123 190 -233 134z"/>
<path d="M5021 4544 c-33 -27 -39 -60 -20 -95 22 -43 -61 -129 -126 -129 -23
0 -39 9 -62 35 -39 44 -84 48 -109 10 -39 -60 25 -158 120 -185 82 -23 166 2
239 71 l39 38 39 -39 c39 -39 128 -80 173 -80 32 0 107 28 133 49 29 24 63 81
63 106 0 11 -7 31 -16 43 -24 34 -69 29 -117 -14 -34 -31 -44 -35 -75 -30 -41
6 -112 69 -112 99 0 10 5 27 11 39 13 25 5 62 -21 88 -31 31 -119 28 -159 -6z"/>
<path d="M3050 4620 c-9 -6 -10 -10 -3 -10 6 0 15 5 18 10 8 12 4 12 -15 0z"/>
<path d="M4040 3373 c-51 -19 -68 -85 -30 -123 28 -28 84 -27 104 2 21 30 20
81 -1 100 -22 19 -53 28 -73 21z"/>
<path d="M6057 3352 c-23 -25 -22 -85 1 -105 25 -23 78 -21 102 3 26 26 26 81
2 103 -25 23 -85 22 -105 -1z"/>
<path d="M2166 4184 c-28 -29 -34 -70 -14 -107 41 -78 150 -54 165 35 5 32 1
41 -25 68 -40 40 -88 41 -126 4z"/>
<path d="M7905 4185 c-36 -35 -35 -105 1 -134 64 -50 144 -10 144 73 0 36 -5
48 -26 65 -37 29 -89 27 -119 -4z"/>
<path d="M5055 3246 c-44 -19 -85 -72 -85 -108 0 -70 64 -138 129 -138 42 0
96 25 115 54 38 59 25 147 -28 181 -35 23 -95 28 -131 11z"/>
<path d="M2255 3105 c-14 -13 -25 -36 -25 -50 0 -28 40 -75 64 -75 57 0 93 54
71 107 -21 49 -71 58 -110 18z"/>
<path d="M1665 2123 c-49 -25 -76 -55 -102 -112 -25 -54 -25 -56 -9 -107 39
-123 163 -180 263 -122 45 27 62 44 86 87 34 64 14 176 -39 222 -56 48 -140
61 -199 32z"/>
<path d="M8360 2156 c-82 -43 -130 -121 -130 -211 0 -92 44 -159 134 -204 70
-34 145 -26 220 24 75 50 108 107 107 186 -1 66 -18 108 -65 157 -68 72 -181
92 -266 48z"/>
<path d="M9571 2244 c-31 -22 -42 -57 -30 -94 11 -31 42 -55 59 -45 17 10 -1
36 -21 30 -16 -5 -19 -2 -18 22 1 15 -2 36 -6 46 -6 14 -2 17 24 17 20 0 31 5
31 14 0 23 -15 27 -39 10z"/>
<path d="M9625 2250 c-9 -15 4 -30 25 -30 15 0 18 -8 18 -44 0 -34 -3 -43 -16
-42 -9 0 -18 -7 -20 -16 -5 -27 24 -22 47 8 29 37 27 75 -7 107 -31 30 -38 32
-47 17z"/>
<path d="M7494 2156 c-2 -6 -3 -104 -2 -216 l3 -205 74 -3 c41 -2 88 2 105 9
97 37 156 116 156 207 0 86 -62 179 -134 201 -52 16 -197 21 -202 7z"/>
</g>
</svg>
